<?xml version="1.0" encoding="UTF-8" standalone="no"?>
<svg
   width="748.63593"
   zoomAndPan="magnify"
   viewBox="0 0 561.47694 140.16864"
   height="186.89153"
   preserveAspectRatio="xMidYMid"
   version="1.2"
   id="svg8503"
   sodipodi:docname="logo-white.svg"
   inkscape:version="1.2.2 (b0a8486541, 2022-12-01)"
   xmlns:inkscape="http://www.inkscape.org/namespaces/inkscape"
   xmlns:sodipodi="http://sodipodi.sourceforge.net/DTD/sodipodi-0.dtd"
   xmlns="http://www.w3.org/2000/svg"
   xmlns:svg="http://www.w3.org/2000/svg">
  <sodipodi:namedview
     id="namedview8505"
     pagecolor="#ffffff"
     bordercolor="#111111"
     borderopacity="1"
     inkscape:showpageshadow="0"
     inkscape:pageopacity="0"
     inkscape:pagecheckerboard="1"
     inkscape:deskcolor="#d1d1d1"
     showgrid="false"
     inkscape:zoom="0.77962963"
     inkscape:cx="338.62233"
     inkscape:cy="104.53682"
     inkscape:window-width="1920"
     inkscape:window-height="1011"
     inkscape:window-x="0"
     inkscape:window-y="32"
     inkscape:window-maximized="1"
     inkscape:current-layer="svg8503" />
  <defs
     id="defs8442">
    <clipPath
       id="ee37b7d799">
      <path
         d="m 128.25781,449.26953 h 507.98047 v 18.13672 H 128.25781 Z m 0,0"
         id="path8439" />
    </clipPath>
  </defs>
  <g
     id="c8e4bd098b"
     transform="translate(-128.25781,-327.23761)">
    <g
       style="fill:#ffffff;fill-opacity:1"
       id="g8448">
      <g
         transform="translate(118.00567,435.03448)"
         id="g8446">
        <path
           style="stroke:none"
           d="m 58.875,-59.734375 c 5.851562,0 10.191406,-1.113281 13.015625,-3.34375 2.832031,-2.226563 4.25,-5.976563 4.25,-11.25 0,-4.351563 -1.320313,-7.773437 -3.953125,-10.265625 -2.636719,-2.5 -6.523438,-3.75 -11.65625,-3.75 H 32.734375 v 28.609375 z M 10.890625,-106.70313 H 64.8125 c 10.988281,0 19.335938,2.94532 25.046875,8.82813 5.707031,5.875 8.5625,12.976562 8.5625,21.296875 0,12.386719 -5.492187,20.855469 -16.46875,25.40625 5.082031,1.9375 8.601563,4.734375 10.5625,8.390625 1.957031,3.648438 2.9375,10.234375 2.9375,19.765625 0,9.492187 0.347656,15.070313 1.046875,16.734375 0.707031,1.667969 1.929688,2.820312 3.67188,3.453125 V 0 H 75.5625 c -1.59375,-4.789062 -2.390625,-11.710938 -2.390625,-20.765625 0,-7.59375 -0.511719,-12.488281 -1.53125,-14.6875 C 70.628906,-37.660156 68.945312,-39.257812 66.59375,-40.25 64.25,-41.238281 60.632812,-41.734375 55.75,-41.734375 H 32.734375 V 0 h -21.84375 z m 0,0"
           id="path8444" />
      </g>
    </g>
    <g
       style="fill:#ffffff;fill-opacity:1"
       id="g8454">
      <g
         transform="translate(214.67561,435.03448)"
         id="g8452">
        <path
           style="stroke:none"
           d="m 59.453125,-47.40625 c -0.4375,-5.03125 -2.085937,-9.066406 -4.9375,-12.109375 -2.855469,-3.050781 -6.558594,-4.578125 -11.109375,-4.578125 -9.875,0 -15.511719,5.5625 -16.90625,16.6875 z m 20.53125,24.25 C 77.566406,-14.976562 73.238281,-8.722656 67,-4.390625 c -6.242188,4.3359375 -13.5,6.5 -21.78125,6.5 -13.011719,0 -22.953125,-3.59375 -29.828125,-10.78125 -6.875,-7.1875 -10.3125,-17.144531 -10.3125,-29.875 0,-12.769531 3.226563,-23.0625 9.6875,-30.875 6.46875,-7.820313 16.113281,-11.734375 28.9375,-11.734375 11.507813,0 20.578125,3.65625 27.203125,10.96875 6.632812,7.304688 9.953125,18.167969 9.953125,32.59375 v 3.703125 H 25.90625 c 0.488281,6.429687 2.378906,11.25 5.671875,14.46875 3.289063,3.21875 7.765625,4.828125 13.421875,4.828125 3.382812,0 6.3125,-0.785156 8.78125,-2.359375 2.46875,-1.570313 4.066406,-3.640625 4.796875,-6.203125 z m 0,0"
           id="path8450" />
      </g>
    </g>
    <g
       style="fill:#ffffff;fill-opacity:1"
       id="g8460">
      <g
         transform="translate(293.19959,435.03448)"
         id="g8458">
        <path
           style="stroke:none"
           d="m 54.359375,-54.875 c -0.386719,-3.4375 -1.640625,-6.097656 -3.765625,-7.984375 -2.125,-1.882813 -5.511719,-2.828125 -10.15625,-2.828125 -4.3125,0 -7.484375,0.703125 -9.515625,2.109375 -2.03125,1.398437 -3.046875,3.164063 -3.046875,5.296875 0,2.074219 0.859375,3.683594 2.578125,4.828125 1.71875,1.136719 8.332031,3.058594 19.84375,5.765625 11.757813,2.761719 19.234375,5.96875 22.421875,9.625 3.195312,3.648438 4.796875,8.203125 4.796875,13.671875 0,8.761719 -3.085937,15.464844 -9.25,20.109375 -6.167969,4.644531 -15.375,6.96875 -27.625,6.96875 C 29.859375,2.6875 21.40625,0.460938 15.28125,-3.984375 9.15625,-8.441406 5.632812,-15.4375 4.71875,-24.96875 H 26.0625 c 0,4.117188 1.316406,7.179688 3.953125,9.1875 2.632813,2 6.640625,3 12.015625,3 4.539062,0 8.019531,-0.6875 10.4375,-2.0625 2.425781,-1.375 3.640625,-3.203125 3.640625,-5.484375 0,-2.320313 -0.886719,-4.125 -2.65625,-5.40625 -1.761719,-1.28125 -7.746094,-3.007813 -17.953125,-5.1875 -11.375,-2.414063 -18.917969,-5.570313 -22.625,-9.46875 -3.699219,-3.894531 -5.546875,-8.578125 -5.546875,-14.046875 0,-7.84375 2.804687,-14.253906 8.421875,-19.234375 5.613281,-4.988281 13.910156,-7.484375 24.890625,-7.484375 10.75,0 18.976563,2.230469 24.6875,6.6875 5.707031,4.449219 8.878906,10.980469 9.515625,19.59375 z m 0,0"
           id="path8456" />
      </g>
    </g>
    <g
       style="fill:#ffffff;fill-opacity:1"
       id="g8466">
      <g
         transform="translate(369.11055,435.03448)"
         id="g8464">
        <path
           style="stroke:none"
           d="M 81,0 H 61.125 v -11.171875 h -0.296875 c -5.273437,8.855469 -13.304687,13.28125 -24.09375,13.28125 -8.375,0 -14.960937,-2.46875 -19.75,-7.40625 -4.792969,-4.9375 -7.1875,-12.195313 -7.1875,-21.78125 V -79.125 H 30.625 v 49.078125 c 0,5.03125 1.160156,8.726563 3.484375,11.078125 2.320313,2.34375 5.660156,3.515625 10.015625,3.515625 4.695312,0 8.546875,-1.5625 11.546875,-4.6875 3,-3.125 4.5,-7.566406 4.5,-13.328125 V -79.125 H 81 Z m 0,0"
           id="path8462" />
      </g>
    </g>
    <g
       style="fill:#ffffff;fill-opacity:1"
       id="g8472">
      <g
         transform="translate(453.58641,435.03448)"
         id="g8470">
        <path
           style="stroke:none"
           d="M 31,0 H 10.15625 V -106.70313 H 31 Z m 0,0"
           id="path8468" />
      </g>
    </g>
    <g
       style="fill:#ffffff;fill-opacity:1"
       id="g8478">
      <g
         transform="translate(488.05183,435.03448)"
         id="g8476">
        <path
           style="stroke:none"
           d="M 33.390625,-79.125 H 46.3125 v 14.890625 H 33.390625 v 44.34375 c 0,2.085937 0.566406,3.445313 1.703125,4.078125 1.132812,0.625 2.890625,0.9375 5.265625,0.9375 2.375,0 4.359375,-0.09766 5.953125,-0.296875 v 15.46875 c -3.054688,0.476563 -6.804688,0.71875 -11.25,0.71875 -8.230469,0 -14.039062,-1.242187 -17.421875,-3.734375 C 14.253906,-5.207031 12.5625,-9.695312 12.5625,-16.1875 V -64.234375 H 1.8125 V -79.125 h 10.75 v -21.32813 h 20.828125 z m 0,0"
           id="path8474" />
      </g>
    </g>
    <g
       style="fill:#f9a729;fill-opacity:1"
       id="g8484">
      <g
         transform="translate(531.30253,435.03448)"
         id="g8482">
        <path
           style="stroke:none"
           d="M 31,-88.484375 H 10.15625 V -107.79688 H 31 Z M 31,-79.125 V 0 H 10.15625 v -79.125 z m 0,0"
           id="path8480" />
      </g>
    </g>
    <g
       style="fill:#f9a729;fill-opacity:1"
       id="g8490">
      <g
         transform="translate(565.76793,435.03448)"
         id="g8488">
        <path
           style="stroke:none"
           d="M 33.390625,-79.125 H 46.3125 v 14.890625 H 33.390625 v 44.34375 c 0,2.085937 0.566406,3.445313 1.703125,4.078125 1.132812,0.625 2.890625,0.9375 5.265625,0.9375 2.375,0 4.359375,-0.09766 5.953125,-0.296875 v 15.46875 c -3.054688,0.476563 -6.804688,0.71875 -11.25,0.71875 -8.230469,0 -14.039062,-1.242187 -17.421875,-3.734375 C 14.253906,-5.207031 12.5625,-9.695312 12.5625,-16.1875 V -64.234375 H 1.8125 V -79.125 h 10.75 v -21.32813 h 20.828125 z m 0,0"
           id="path8486" />
      </g>
    </g>
    <g
       style="fill:#f9a729;fill-opacity:1"
       id="g8496">
      <g
         transform="translate(609.01601,435.03448)"
         id="g8494">
        <path
           style="stroke:none"
           d="M 53.5,-1.3125 C 49.570312,9.914062 46.617188,17.394531 44.640625,21.125 42.660156,24.851562 40.238281,27.570312 37.375,29.28125 34.519531,31 29.707031,31.859375 22.9375,31.859375 c -3.480469,0 -6.625,-0.167969 -9.4375,-0.5 V 14.875 c 1.5,0.195312 3.382812,0.296875 5.65625,0.296875 3,0 5.453125,-0.632813 7.359375,-1.890625 1.914063,-1.261719 3.53125,-4.554688 4.84375,-9.875 L 2.03125,-79.125 h 23.234375 l 16.90625,58.296875 H 42.53125 L 58.71875,-79.125 h 22 z m 0,0"
           id="path8492" />
      </g>
    </g>
    <g
       clip-rule="nonzero"
       clip-path="url(#ee37b7d799)"
       id="g8500">
      <path
         style="fill:#f9a729;fill-opacity:1;fill-rule:nonzero;stroke:none"
         d="m 128.25781,449.26953 h 507.96094 v 18.13672 H 128.25781 Z m 0,0"
         id="path8498" />
    </g>
  </g>
</svg>
